<mxfile host="app.diagrams.net" modified="2023-10-18T08:09:15.495Z" agent="Mozilla/5.0 (Windows NT 10.0; Win64; x64) AppleWebKit/537.36 (KHTML, like Gecko) Chrome/118.0.0.0 Safari/537.36 Edg/118.0.2088.46" etag="S-J9kG2__CFAGofgwecW" version="22.0.4" type="github">
  <diagram name="第 1 页" id="OCSxF5xAEGf41ikE39Lu">
    <mxGraphModel dx="2012" dy="1193" grid="1" gridSize="10" guides="1" tooltips="1" connect="1" arrows="1" fold="1" page="1" pageScale="1" pageWidth="827" pageHeight="1169" math="0" shadow="0">
      <root>
        <mxCell id="0" />
        <mxCell id="1" parent="0" />
      </root>
    </mxGraphModel>
  </diagram>
</mxfile>
